<mxfile host="app.diagrams.net" modified="2023-04-19T17:18:19.973Z" agent="Mozilla/5.0 (Windows NT 10.0; Win64; x64) AppleWebKit/537.36 (KHTML, like Gecko) Chrome/112.0.0.0 Safari/537.36" etag="p1Ze0r0Ue18692Bi93u3" version="21.2.0" type="device">
  <diagram name="Strona-1" id="wNHXpYLiDMAP40RwPzXb">
    <mxGraphModel dx="1434" dy="1937" grid="1" gridSize="10" guides="1" tooltips="1" connect="1" arrows="1" fold="1" page="1" pageScale="1" pageWidth="827" pageHeight="1169" math="0" shadow="0">
      <root>
        <mxCell id="0" />
        <mxCell id="1" parent="0" />
        <mxCell id="qQ33E77-4V99ocWS7eGZ-1" value="Klient&lt;br&gt;" style="shape=umlActor;verticalLabelPosition=bottom;verticalAlign=top;html=1;" vertex="1" parent="1">
          <mxGeometry x="140" y="125" width="30" height="60" as="geometry" />
        </mxCell>
        <mxCell id="qQ33E77-4V99ocWS7eGZ-2" value="Handlowiec&lt;br&gt;" style="shape=umlActor;verticalLabelPosition=bottom;verticalAlign=top;html=1;" vertex="1" parent="1">
          <mxGeometry x="140" y="315" width="30" height="60" as="geometry" />
        </mxCell>
        <mxCell id="qQ33E77-4V99ocWS7eGZ-3" value="Kierownik" style="shape=umlActor;verticalLabelPosition=bottom;verticalAlign=top;html=1;" vertex="1" parent="1">
          <mxGeometry x="140" y="515" width="30" height="60" as="geometry" />
        </mxCell>
        <mxCell id="qQ33E77-4V99ocWS7eGZ-4" value="Oglądanie samochodów&lt;br&gt;" style="ellipse;whiteSpace=wrap;html=1;" vertex="1" parent="1">
          <mxGeometry x="260" y="75" width="140" height="70" as="geometry" />
        </mxCell>
        <mxCell id="qQ33E77-4V99ocWS7eGZ-5" value="" style="endArrow=classic;html=1;rounded=0;entryX=0;entryY=0.5;entryDx=0;entryDy=0;exitX=1;exitY=0.3333333333333333;exitDx=0;exitDy=0;exitPerimeter=0;" edge="1" parent="1" source="qQ33E77-4V99ocWS7eGZ-1" target="qQ33E77-4V99ocWS7eGZ-4">
          <mxGeometry width="50" height="50" relative="1" as="geometry">
            <mxPoint x="210" y="145" as="sourcePoint" />
            <mxPoint x="260" y="95" as="targetPoint" />
          </mxGeometry>
        </mxCell>
        <mxCell id="qQ33E77-4V99ocWS7eGZ-12" value="Rezerwacja samochodu" style="ellipse;whiteSpace=wrap;html=1;" vertex="1" parent="1">
          <mxGeometry x="470" y="30" width="140" height="70" as="geometry" />
        </mxCell>
        <mxCell id="qQ33E77-4V99ocWS7eGZ-14" value="&amp;lt;&amp;lt; extend &amp;gt;&amp;gt;" style="endArrow=open;html=1;rounded=0;dashed=1;endFill=0;" edge="1" parent="1">
          <mxGeometry x="0.2" width="50" height="50" relative="1" as="geometry">
            <mxPoint x="80" y="-10" as="sourcePoint" />
            <mxPoint x="130" y="-60" as="targetPoint" />
            <mxPoint as="offset" />
          </mxGeometry>
        </mxCell>
        <mxCell id="qQ33E77-4V99ocWS7eGZ-15" value="&amp;lt;&amp;lt; include &amp;gt;&amp;gt;" style="endArrow=open;html=1;rounded=0;dashed=1;endFill=0;entryX=0;entryY=0.5;entryDx=0;entryDy=0;exitX=1.007;exitY=0.614;exitDx=0;exitDy=0;exitPerimeter=0;" edge="1" parent="1" source="qQ33E77-4V99ocWS7eGZ-18" target="qQ33E77-4V99ocWS7eGZ-19">
          <mxGeometry width="50" height="50" relative="1" as="geometry">
            <mxPoint x="530" y="225" as="sourcePoint" />
            <mxPoint x="160" y="35" as="targetPoint" />
          </mxGeometry>
        </mxCell>
        <mxCell id="qQ33E77-4V99ocWS7eGZ-16" value="&amp;lt;&amp;lt; include &amp;gt;&amp;gt;" style="endArrow=open;html=1;rounded=0;dashed=1;endFill=0;" edge="1" parent="1">
          <mxGeometry width="50" height="50" relative="1" as="geometry">
            <mxPoint x="670" y="-10" as="sourcePoint" />
            <mxPoint x="760" y="-60" as="targetPoint" />
          </mxGeometry>
        </mxCell>
        <mxCell id="qQ33E77-4V99ocWS7eGZ-17" value="&amp;lt;&amp;lt; extend &amp;gt;&amp;gt;" style="endArrow=open;html=1;rounded=0;dashed=1;endFill=0;entryX=1;entryY=0.5;entryDx=0;entryDy=0;exitX=0;exitY=0.5;exitDx=0;exitDy=0;" edge="1" parent="1" target="qQ33E77-4V99ocWS7eGZ-4">
          <mxGeometry width="50" height="50" relative="1" as="geometry">
            <mxPoint x="520" y="70" as="sourcePoint" />
            <mxPoint x="230" y="55" as="targetPoint" />
          </mxGeometry>
        </mxCell>
        <mxCell id="qQ33E77-4V99ocWS7eGZ-18" value="Podpisanie umowy" style="ellipse;whiteSpace=wrap;html=1;" vertex="1" parent="1">
          <mxGeometry x="310" y="205" width="140" height="70" as="geometry" />
        </mxCell>
        <mxCell id="qQ33E77-4V99ocWS7eGZ-19" value="Płatność" style="ellipse;whiteSpace=wrap;html=1;" vertex="1" parent="1">
          <mxGeometry x="570" y="215" width="140" height="70" as="geometry" />
        </mxCell>
        <mxCell id="qQ33E77-4V99ocWS7eGZ-20" value="" style="endArrow=classic;html=1;rounded=0;entryX=0;entryY=0.5;entryDx=0;entryDy=0;exitX=1;exitY=0.3333333333333333;exitDx=0;exitDy=0;exitPerimeter=0;" edge="1" parent="1" source="qQ33E77-4V99ocWS7eGZ-1" target="qQ33E77-4V99ocWS7eGZ-18">
          <mxGeometry width="50" height="50" relative="1" as="geometry">
            <mxPoint x="160" y="315" as="sourcePoint" />
            <mxPoint x="200" y="275" as="targetPoint" />
          </mxGeometry>
        </mxCell>
        <mxCell id="qQ33E77-4V99ocWS7eGZ-24" value="Negocjacja ceny" style="ellipse;whiteSpace=wrap;html=1;" vertex="1" parent="1">
          <mxGeometry x="320" y="325" width="140" height="70" as="geometry" />
        </mxCell>
        <mxCell id="qQ33E77-4V99ocWS7eGZ-27" value="&amp;lt;&amp;lt; extend &amp;gt;&amp;gt;" style="endArrow=open;html=1;rounded=0;dashed=1;endFill=0;entryX=1;entryY=0.5;entryDx=0;entryDy=0;exitX=0;exitY=0.5;exitDx=0;exitDy=0;" edge="1" parent="1" source="qQ33E77-4V99ocWS7eGZ-46" target="qQ33E77-4V99ocWS7eGZ-44">
          <mxGeometry x="-0.2607" y="-7" width="50" height="50" relative="1" as="geometry">
            <mxPoint x="60" y="45" as="sourcePoint" />
            <mxPoint x="200" y="25" as="targetPoint" />
            <mxPoint as="offset" />
          </mxGeometry>
        </mxCell>
        <mxCell id="qQ33E77-4V99ocWS7eGZ-29" value="Dodanie nowego&lt;br&gt;samochodu" style="ellipse;whiteSpace=wrap;html=1;" vertex="1" parent="1">
          <mxGeometry x="300" y="415" width="140" height="70" as="geometry" />
        </mxCell>
        <mxCell id="qQ33E77-4V99ocWS7eGZ-31" value="&amp;lt;&amp;lt; extend &amp;gt;&amp;gt;" style="endArrow=open;html=1;rounded=0;dashed=1;endFill=0;entryX=1;entryY=1;entryDx=0;entryDy=0;exitX=0;exitY=0;exitDx=0;exitDy=0;" edge="1" parent="1" source="qQ33E77-4V99ocWS7eGZ-32" target="qQ33E77-4V99ocWS7eGZ-4">
          <mxGeometry width="50" height="50" relative="1" as="geometry">
            <mxPoint x="180" y="105" as="sourcePoint" />
            <mxPoint x="230" y="55" as="targetPoint" />
          </mxGeometry>
        </mxCell>
        <mxCell id="qQ33E77-4V99ocWS7eGZ-32" value="Rezerwacja jazdy testowej" style="ellipse;whiteSpace=wrap;html=1;" vertex="1" parent="1">
          <mxGeometry x="670" y="125" width="140" height="70" as="geometry" />
        </mxCell>
        <mxCell id="qQ33E77-4V99ocWS7eGZ-33" value="&amp;lt;&amp;lt; extend &amp;gt;&amp;gt;" style="endArrow=open;html=1;rounded=0;dashed=1;endFill=0;exitX=0.5;exitY=1;exitDx=0;exitDy=0;entryX=0.5;entryY=0;entryDx=0;entryDy=0;" edge="1" parent="1" source="qQ33E77-4V99ocWS7eGZ-18" target="qQ33E77-4V99ocWS7eGZ-24">
          <mxGeometry width="50" height="50" relative="1" as="geometry">
            <mxPoint x="180" y="105" as="sourcePoint" />
            <mxPoint x="230" y="55" as="targetPoint" />
          </mxGeometry>
        </mxCell>
        <mxCell id="qQ33E77-4V99ocWS7eGZ-36" value="" style="endArrow=classic;html=1;rounded=0;entryX=0;entryY=0;entryDx=0;entryDy=0;exitX=1;exitY=0.3333333333333333;exitDx=0;exitDy=0;exitPerimeter=0;" edge="1" parent="1" source="qQ33E77-4V99ocWS7eGZ-1" target="qQ33E77-4V99ocWS7eGZ-24">
          <mxGeometry width="50" height="50" relative="1" as="geometry">
            <mxPoint x="200" y="325" as="sourcePoint" />
            <mxPoint x="250" y="275" as="targetPoint" />
          </mxGeometry>
        </mxCell>
        <mxCell id="qQ33E77-4V99ocWS7eGZ-37" value="" style="endArrow=classic;html=1;rounded=0;entryX=0;entryY=0.5;entryDx=0;entryDy=0;exitX=1;exitY=0.3333333333333333;exitDx=0;exitDy=0;exitPerimeter=0;" edge="1" parent="1" source="qQ33E77-4V99ocWS7eGZ-2" target="qQ33E77-4V99ocWS7eGZ-24">
          <mxGeometry width="50" height="50" relative="1" as="geometry">
            <mxPoint x="200" y="365" as="sourcePoint" />
            <mxPoint x="250" y="315" as="targetPoint" />
          </mxGeometry>
        </mxCell>
        <mxCell id="qQ33E77-4V99ocWS7eGZ-38" value="" style="endArrow=classic;html=1;rounded=0;entryX=0;entryY=0.5;entryDx=0;entryDy=0;exitX=1;exitY=0.3333333333333333;exitDx=0;exitDy=0;exitPerimeter=0;" edge="1" parent="1" source="qQ33E77-4V99ocWS7eGZ-2" target="qQ33E77-4V99ocWS7eGZ-29">
          <mxGeometry width="50" height="50" relative="1" as="geometry">
            <mxPoint x="180" y="465" as="sourcePoint" />
            <mxPoint x="230" y="415" as="targetPoint" />
          </mxGeometry>
        </mxCell>
        <mxCell id="qQ33E77-4V99ocWS7eGZ-40" value="" style="endArrow=classic;html=1;rounded=0;entryX=0;entryY=1;entryDx=0;entryDy=0;exitX=1;exitY=0.3333333333333333;exitDx=0;exitDy=0;exitPerimeter=0;" edge="1" parent="1" source="qQ33E77-4V99ocWS7eGZ-2" target="qQ33E77-4V99ocWS7eGZ-18">
          <mxGeometry width="50" height="50" relative="1" as="geometry">
            <mxPoint x="100" y="315" as="sourcePoint" />
            <mxPoint x="150" y="265" as="targetPoint" />
          </mxGeometry>
        </mxCell>
        <mxCell id="qQ33E77-4V99ocWS7eGZ-42" value="" style="endArrow=classic;html=1;rounded=0;entryX=0;entryY=0.5;entryDx=0;entryDy=0;exitX=1;exitY=0.3333333333333333;exitDx=0;exitDy=0;exitPerimeter=0;" edge="1" parent="1" source="qQ33E77-4V99ocWS7eGZ-3" target="qQ33E77-4V99ocWS7eGZ-29">
          <mxGeometry width="50" height="50" relative="1" as="geometry">
            <mxPoint x="210" y="545" as="sourcePoint" />
            <mxPoint x="260" y="495" as="targetPoint" />
          </mxGeometry>
        </mxCell>
        <mxCell id="qQ33E77-4V99ocWS7eGZ-44" value="Zarządanie samochodami" style="ellipse;whiteSpace=wrap;html=1;" vertex="1" parent="1">
          <mxGeometry x="310" y="495" width="140" height="70" as="geometry" />
        </mxCell>
        <mxCell id="qQ33E77-4V99ocWS7eGZ-45" value="" style="endArrow=classic;html=1;rounded=0;entryX=0;entryY=0.5;entryDx=0;entryDy=0;exitX=1;exitY=0.3333333333333333;exitDx=0;exitDy=0;exitPerimeter=0;" edge="1" parent="1" source="qQ33E77-4V99ocWS7eGZ-3" target="qQ33E77-4V99ocWS7eGZ-44">
          <mxGeometry width="50" height="50" relative="1" as="geometry">
            <mxPoint x="140" y="485" as="sourcePoint" />
            <mxPoint x="190" y="435" as="targetPoint" />
          </mxGeometry>
        </mxCell>
        <mxCell id="qQ33E77-4V99ocWS7eGZ-46" value="Naprawa&lt;br&gt;Samochodu" style="ellipse;whiteSpace=wrap;html=1;" vertex="1" parent="1">
          <mxGeometry x="630" y="385" width="140" height="70" as="geometry" />
        </mxCell>
        <mxCell id="qQ33E77-4V99ocWS7eGZ-47" value="Utworzenie zlecenie na zakup samochodu" style="ellipse;whiteSpace=wrap;html=1;" vertex="1" parent="1">
          <mxGeometry x="520" y="310" width="140" height="70" as="geometry" />
        </mxCell>
        <mxCell id="qQ33E77-4V99ocWS7eGZ-48" value="" style="endArrow=classic;html=1;rounded=0;entryX=0;entryY=0;entryDx=0;entryDy=0;exitX=1;exitY=0.3333333333333333;exitDx=0;exitDy=0;exitPerimeter=0;" edge="1" parent="1" source="qQ33E77-4V99ocWS7eGZ-1" target="qQ33E77-4V99ocWS7eGZ-47">
          <mxGeometry width="50" height="50" relative="1" as="geometry">
            <mxPoint x="120" y="295" as="sourcePoint" />
            <mxPoint x="170" y="245" as="targetPoint" />
            <Array as="points">
              <mxPoint x="430" y="185" />
            </Array>
          </mxGeometry>
        </mxCell>
        <mxCell id="qQ33E77-4V99ocWS7eGZ-49" value="" style="endArrow=classic;html=1;rounded=0;entryX=0;entryY=1;entryDx=0;entryDy=0;exitX=1;exitY=0.3333333333333333;exitDx=0;exitDy=0;exitPerimeter=0;" edge="1" parent="1" source="qQ33E77-4V99ocWS7eGZ-3" target="qQ33E77-4V99ocWS7eGZ-47">
          <mxGeometry width="50" height="50" relative="1" as="geometry">
            <mxPoint x="230" y="625" as="sourcePoint" />
            <mxPoint x="280" y="575" as="targetPoint" />
            <Array as="points">
              <mxPoint x="420" y="485" />
            </Array>
          </mxGeometry>
        </mxCell>
        <mxCell id="qQ33E77-4V99ocWS7eGZ-51" value="&amp;lt;&amp;lt; include &amp;gt;&amp;gt;" style="endArrow=open;html=1;rounded=0;dashed=1;endFill=0;exitX=1;exitY=0;exitDx=0;exitDy=0;entryX=1;entryY=1;entryDx=0;entryDy=0;" edge="1" parent="1" source="qQ33E77-4V99ocWS7eGZ-46" target="qQ33E77-4V99ocWS7eGZ-19">
          <mxGeometry width="50" height="50" relative="1" as="geometry">
            <mxPoint x="650" y="415" as="sourcePoint" />
            <mxPoint x="740" y="365" as="targetPoint" />
            <Array as="points" />
          </mxGeometry>
        </mxCell>
        <mxCell id="qQ33E77-4V99ocWS7eGZ-52" value="Aktualizacja listy samochodów" style="ellipse;whiteSpace=wrap;html=1;" vertex="1" parent="1">
          <mxGeometry x="510" y="510" width="140" height="70" as="geometry" />
        </mxCell>
        <mxCell id="qQ33E77-4V99ocWS7eGZ-53" value="&amp;lt;&amp;lt; include &amp;gt;&amp;gt;" style="endArrow=open;html=1;rounded=0;dashed=1;endFill=0;exitX=1;exitY=1;exitDx=0;exitDy=0;entryX=0;entryY=0;entryDx=0;entryDy=0;" edge="1" parent="1" source="qQ33E77-4V99ocWS7eGZ-18" target="qQ33E77-4V99ocWS7eGZ-52">
          <mxGeometry width="50" height="50" relative="1" as="geometry">
            <mxPoint x="464" y="565" as="sourcePoint" />
            <mxPoint x="554" y="515" as="targetPoint" />
          </mxGeometry>
        </mxCell>
        <mxCell id="qQ33E77-4V99ocWS7eGZ-54" value="&amp;lt;&amp;lt; include &amp;gt;&amp;gt;" style="endArrow=open;html=1;rounded=0;dashed=1;endFill=0;exitX=1;exitY=0.5;exitDx=0;exitDy=0;entryX=0;entryY=0;entryDx=0;entryDy=0;" edge="1" parent="1" source="qQ33E77-4V99ocWS7eGZ-29" target="qQ33E77-4V99ocWS7eGZ-52">
          <mxGeometry x="-0.4073" width="50" height="50" relative="1" as="geometry">
            <mxPoint x="720" y="545" as="sourcePoint" />
            <mxPoint x="810" y="495" as="targetPoint" />
            <Array as="points">
              <mxPoint x="470" y="475" />
            </Array>
            <mxPoint as="offset" />
          </mxGeometry>
        </mxCell>
        <mxCell id="qQ33E77-4V99ocWS7eGZ-57" value="Utworzenie konta klienta" style="ellipse;whiteSpace=wrap;html=1;" vertex="1" parent="1">
          <mxGeometry x="10" y="215" width="140" height="70" as="geometry" />
        </mxCell>
        <mxCell id="qQ33E77-4V99ocWS7eGZ-58" value="Administrator" style="shape=umlActor;verticalLabelPosition=bottom;verticalAlign=top;html=1;" vertex="1" parent="1">
          <mxGeometry x="140" y="615" width="30" height="60" as="geometry" />
        </mxCell>
        <mxCell id="qQ33E77-4V99ocWS7eGZ-59" value="Utworzenie konta pracownika" style="ellipse;whiteSpace=wrap;html=1;" vertex="1" parent="1">
          <mxGeometry x="260" y="575" width="140" height="70" as="geometry" />
        </mxCell>
        <mxCell id="qQ33E77-4V99ocWS7eGZ-61" value="" style="endArrow=classic;html=1;rounded=0;entryX=0;entryY=0.5;entryDx=0;entryDy=0;exitX=1;exitY=0.3333333333333333;exitDx=0;exitDy=0;exitPerimeter=0;" edge="1" parent="1" source="qQ33E77-4V99ocWS7eGZ-58" target="qQ33E77-4V99ocWS7eGZ-59">
          <mxGeometry width="50" height="50" relative="1" as="geometry">
            <mxPoint x="250" y="670" as="sourcePoint" />
            <mxPoint x="300" y="620" as="targetPoint" />
          </mxGeometry>
        </mxCell>
        <mxCell id="qQ33E77-4V99ocWS7eGZ-63" value="" style="endArrow=classic;html=1;rounded=0;entryX=0.5;entryY=0;entryDx=0;entryDy=0;exitX=0;exitY=0.3333333333333333;exitDx=0;exitDy=0;exitPerimeter=0;" edge="1" parent="1" source="qQ33E77-4V99ocWS7eGZ-1" target="qQ33E77-4V99ocWS7eGZ-57">
          <mxGeometry width="50" height="50" relative="1" as="geometry">
            <mxPoint x="70" y="180" as="sourcePoint" />
            <mxPoint x="120" y="130" as="targetPoint" />
          </mxGeometry>
        </mxCell>
        <mxCell id="qQ33E77-4V99ocWS7eGZ-64" value="Ubezpieczenie samochodu" style="ellipse;whiteSpace=wrap;html=1;" vertex="1" parent="1">
          <mxGeometry x="490" y="145" width="140" height="70" as="geometry" />
        </mxCell>
        <mxCell id="qQ33E77-4V99ocWS7eGZ-65" value="&amp;lt;&amp;lt; extend &amp;gt;&amp;gt;" style="endArrow=open;html=1;rounded=0;dashed=1;endFill=0;exitX=0;exitY=0.5;exitDx=0;exitDy=0;entryX=1;entryY=0;entryDx=0;entryDy=0;" edge="1" parent="1" source="qQ33E77-4V99ocWS7eGZ-64" target="qQ33E77-4V99ocWS7eGZ-18">
          <mxGeometry x="0.2" width="50" height="50" relative="1" as="geometry">
            <mxPoint x="140" y="70" as="sourcePoint" />
            <mxPoint x="190" y="20" as="targetPoint" />
            <mxPoint as="offset" />
          </mxGeometry>
        </mxCell>
        <mxCell id="qQ33E77-4V99ocWS7eGZ-66" value="Zarządzanie kontami użytkowników" style="ellipse;whiteSpace=wrap;html=1;" vertex="1" parent="1">
          <mxGeometry x="260" y="675" width="140" height="70" as="geometry" />
        </mxCell>
        <mxCell id="qQ33E77-4V99ocWS7eGZ-67" value="" style="endArrow=classic;html=1;rounded=0;entryX=0;entryY=0.5;entryDx=0;entryDy=0;exitX=1;exitY=0.3333333333333333;exitDx=0;exitDy=0;exitPerimeter=0;" edge="1" parent="1" source="qQ33E77-4V99ocWS7eGZ-58" target="qQ33E77-4V99ocWS7eGZ-66">
          <mxGeometry width="50" height="50" relative="1" as="geometry">
            <mxPoint x="50" y="790" as="sourcePoint" />
            <mxPoint x="100" y="740" as="targetPoint" />
          </mxGeometry>
        </mxCell>
        <mxCell id="qQ33E77-4V99ocWS7eGZ-68" value="Aktualizacja danych klienta" style="ellipse;whiteSpace=wrap;html=1;" vertex="1" parent="1">
          <mxGeometry x="10" y="425" width="140" height="70" as="geometry" />
        </mxCell>
        <mxCell id="qQ33E77-4V99ocWS7eGZ-69" value="" style="endArrow=classic;html=1;rounded=0;entryX=0.5;entryY=0;entryDx=0;entryDy=0;exitX=0;exitY=0.3333333333333333;exitDx=0;exitDy=0;exitPerimeter=0;" edge="1" parent="1" source="qQ33E77-4V99ocWS7eGZ-1" target="qQ33E77-4V99ocWS7eGZ-68">
          <mxGeometry width="50" height="50" relative="1" as="geometry">
            <mxPoint x="60" y="400" as="sourcePoint" />
            <mxPoint x="110" y="350" as="targetPoint" />
            <Array as="points">
              <mxPoint x="160" y="290" />
            </Array>
          </mxGeometry>
        </mxCell>
        <mxCell id="qQ33E77-4V99ocWS7eGZ-70" value="" style="endArrow=classic;html=1;rounded=0;entryX=1;entryY=0;entryDx=0;entryDy=0;exitX=0;exitY=0.3333333333333333;exitDx=0;exitDy=0;exitPerimeter=0;" edge="1" parent="1" source="qQ33E77-4V99ocWS7eGZ-2" target="qQ33E77-4V99ocWS7eGZ-68">
          <mxGeometry width="50" height="50" relative="1" as="geometry">
            <mxPoint x="180" y="470" as="sourcePoint" />
            <mxPoint x="230" y="420" as="targetPoint" />
            <Array as="points">
              <mxPoint x="120" y="380" />
            </Array>
          </mxGeometry>
        </mxCell>
        <mxCell id="qQ33E77-4V99ocWS7eGZ-71" value="Wycena samochodu" style="ellipse;whiteSpace=wrap;html=1;" vertex="1" parent="1">
          <mxGeometry x="510" y="590" width="140" height="70" as="geometry" />
        </mxCell>
        <mxCell id="qQ33E77-4V99ocWS7eGZ-72" value="&amp;lt;&amp;lt; extend &amp;gt;&amp;gt;" style="endArrow=open;html=1;rounded=0;dashed=1;endFill=0;entryX=1;entryY=0.5;entryDx=0;entryDy=0;exitX=0;exitY=0.5;exitDx=0;exitDy=0;" edge="1" parent="1" source="qQ33E77-4V99ocWS7eGZ-71" target="qQ33E77-4V99ocWS7eGZ-44">
          <mxGeometry x="0.2" width="50" height="50" relative="1" as="geometry">
            <mxPoint x="440" y="630" as="sourcePoint" />
            <mxPoint x="490" y="580" as="targetPoint" />
            <mxPoint as="offset" />
          </mxGeometry>
        </mxCell>
      </root>
    </mxGraphModel>
  </diagram>
</mxfile>
